[Header]
FileType HTR
DataType HTRS
FileVersion 1
NumSegments 28
NumFrames 4
DataFrameRate 24
EulerRotationOrder ZYX
CalibrationUnits mm
RotationUnits Degrees
GlobalAxisofGravity Y
BoneLengthAxis Y
ScaleFactor 1.0
[SegmentNames&Hierarchy]
waist	GLOBAL
chest	waist
head	chest
joint2	chest
right_shoulder1	joint2
right_elbow1	right_shoulder1
right_wrist1	right_elbow1
right_hand1	right_wrist1
right_finger3	right_hand1
right_finger4	right_hand1
right_finger5	right_hand1
joint3	chest
right_shoulder2	joint3
right_elbow2	right_shoulder2
right_wrist2	right_elbow2
right_hand2	right_wrist2
right_finger6	right_hand2
right_finger7	right_hand2
right_finger8	right_hand2
Center_pelvis	waist
left_pelvs	Center_pelvis
left_leg	left_pelvs
left_knee	left_leg
left_foot	left_knee
right_pelvis	Center_pelvis
right_leg	right_pelvis
right_knee	right_leg
right_foot	right_knee
[BasePosition]
waist	0	0	0	179.9999991	0	91.33221985	1
chest	0	0	0	-2.307808268e-010	-1.984983424e-008	1.332219854	1
head	0	0	0	180	-1.481061187e-024	90	1
joint2	0	0	0	4.615476202e-010	-1.707085745e-006	90	1
right_shoulder1	0	0	0	1.916575325e-008	-1.983803253e-008	-88.02506599	1
right_elbow1	0	0	0	-180	-1.948815659e-008	-12.92899665	1
right_wrist1	0	0	0	3.256551172e-010	1.942478841e-008	1.920938916	1
right_hand1	0	0	0	136.2194085	85.17676588	-133.4832578	1
right_finger3	0	0	0	154.4596717	79.84057755	147.6247455	1
right_finger4	0	0	0	154.4596717	79.84057755	147.6247455	1
right_finger5	0	0	0	154.4596717	79.84057755	147.6247455	1
joint3	0	0	0	-180	-1.89575832e-022	90	1
right_shoulder2	0	0	0	6.774897105e-015	-7.012540931e-015	-88.02506599	1
right_elbow2	0	0	0	-180	-6.888863384e-015	-12.92899665	1
right_wrist2	0	0	0	-1.240805042e-012	-7.401196581e-011	1.920938916	1
right_hand2	0	0	0	136.2194085	85.17676588	-133.4832578	1
right_finger6	0	0	0	154.4596717	79.84057755	147.6247455	1
right_finger7	0	0	0	154.4596717	79.84057755	147.6247455	1
right_finger8	0	0	0	154.4596717	79.84057755	147.6247455	1
Center_pelvis	0	0	0	-180	-8.537716493e-007	89.87586122	1
left_pelvs	0	0	0	0	0	-1.456358634	1
left_leg	0	0	0	179.9999991	0	88.69804733	1
left_knee	0	0	0	-180	-7.863991589e-009	-2.076172838	1
left_foot	0	0	0	179.9999985	-3.055580289e-010	-90.77422016	1
right_pelvis	0	0	0	0	0	-2.39554958	1
right_leg	0	0	0	0	0	-87.75885638	1
right_knee	0	0	0	179.9999991	3.702652968e-022	-2.076172838	1
right_foot	0	0	0	180	-7.405305937e-025	-90.77422016	1
[waist]
17	0.2494212389	-3.152148962	0	6.138286303e-017	13.17413139	1.45334641e-016	1.0
18	0.2494212389	-3.152148962	0	7.976363681e-017	12.4864645	-1.638793421e-016	1.0
19	0.2494212389	-3.152148962	0	5.151611372e-017	11.44781303	-1.449186155e-016	1.0
20	0.2494212389	-3.152148962	0	1.6151929e-017	10.14600372	-1.010967174e-016	1.0
[chest]
17	26.90063095	-5.105234635e-008	3.426064014	-23.24016571	9.434824944	-0.2591049075	1.0
18	26.90063095	-5.105234635e-008	3.426064014	-27.26756859	9.483176231	-0.2804609537	1.0
19	26.90063095	-5.105234635e-008	3.426064014	-30.00345421	9.529123306	-0.3007547259	1.0
20	26.90063095	-5.105234635e-008	3.426064014	-31.0124836	9.569382668	-0.31853652	1.0
[head]
17	20.03941345	-0.4400597811	-0.9650152326	10.8531847	-9.275327682	-1.607463002	1.0
18	20.01760864	-0.4614031017	-0.8605040312	9.582417488	-8.446709633	-1.509058118	1.0
19	19.99542618	-0.4831227064	-0.7541502714	8.289246559	-7.603485107	-1.408918381	1.0
20	19.97303581	-0.505043149	-0.6468126774	6.984113216	-6.752459526	-1.307852387	1.0
[joint2]
17	-1.657010078	17.01290512	0.01287616603	-5.424623966	-13.05386257	-35.52671051	1.0
18	-1.657010078	17.01290512	0.01287616603	-8.721723557	-4.646608353	-26.75936699	1.0
19	-1.657010078	17.01290512	0.01287616603	-12.56396675	3.346313477	-16.25115776	1.0
20	-1.657010078	17.01290512	0.01287616603	-15.59985161	9.655146599	-7.357320786	1.0
[right_shoulder1]
17	14.91590023	0.6211000085	0.9477797747	5.386229992	2.048694849	-32.7947464	1.0
18	14.91590023	0.6211000085	0.9477797747	5.710341454	2.09588027	-32.67170334	1.0
19	14.91590023	0.6211000085	0.9477797747	6.042230129	2.16257906	-32.39771271	1.0
20	14.91590023	0.6211000085	0.9477797747	6.377222061	2.239031315	-31.91639137	1.0
[right_elbow1]
17	-13.64346027	1.083028078	-0.5017899871	-4.183432102	9.165081978	-6.751694679	1.0
18	-13.64346027	1.083028078	-0.5017899871	-4.603363514	12.65997314	-7.566435337	1.0
19	-13.64346027	1.083028078	-0.5017899871	-5.21583128	17.6001358	-8.754002571	1.0
20	-13.64346027	1.083028078	-0.5017899871	-5.949418068	23.26273346	-10.17524242	1.0
[right_wrist1]
17	-11.07325459	0.004849368241	0.6145500541	0	19.55244637	0	1.0
18	-11.07325459	0.004849368241	0.6145500541	0	19.60859108	0	1.0
19	-11.07325459	0.004849368241	0.6145500541	0	19.64705276	0	1.0
20	-11.07325459	0.004849368241	0.6145500541	0	19.6718483	0	1.0
[right_hand1]
17	-8.785093307	0.04701882228	0.1882400364	4.924340248	19.00335693	28.22398186	1.0
18	-8.785093307	0.04701882228	0.1882400364	5.638422012	19.00560951	28.84066582	1.0
19	-8.785093307	0.04701882228	0.1882400364	6.700623989	19.00896263	29.75798416	1.0
20	-8.785093307	0.04701882228	0.1882400364	8.006446838	19.01308441	30.88569832	1.0
[right_finger3]
17	10.07661057	3.347557783	-1.489186764	-83.95970154	13.73537636	87.9484787	1.0
18	10.07661057	3.347557783	-1.489186764	-83.93125916	15.17307281	88.09877014	1.0
19	10.07661057	3.347557783	-1.489186764	-83.90332031	16.58459473	88.24633026	1.0
20	10.07661057	3.347557783	-1.489186764	-83.87619019	17.95602417	88.38970947	1.0
[right_finger4]
17	-1.201135993	3.376283169	11.27149582	-195.031662	10.26955032	101.1236725	1.0
18	-1.201135993	3.376283169	11.27149582	-195.3306427	9.883455276	99.64042664	1.0
19	-1.201135993	3.376283169	11.27149582	-195.6242065	9.504389763	98.1842041	1.0
20	-1.201135993	3.376283169	11.27149582	-195.9094086	9.136091232	96.76932526	1.0
[right_finger5]
17	-6.853637218	4.493112087	-5.936321735	33.1969986	-0.2460129708	85.59028625	1.0
18	-6.853637218	4.493112087	-5.936321735	33.23548889	-1.077280998	86.82667542	1.0
19	-6.853637218	4.493112087	-5.936321735	33.27327347	-1.893415928	88.04056549	1.0
20	-6.853637218	4.493112087	-5.936321735	33.30998993	-2.686368465	89.2199707	1.0
[joint3]
17	-1.657010078	-17.01289368	0.01287565939	-35.36886978	-11.96622849	-2.864517927	1.0
18	-1.657010078	-17.01289368	0.01287565939	-27.87462807	-1.659232855	-14.46039581	1.0
19	-1.657010078	-17.01289368	0.01287565939	-21.3425808	10.21746635	-23.98244286	1.0
20	-1.657010078	-17.01289368	0.01287565939	-18.54761314	19.32884598	-27.93470001	1.0
[right_shoulder2]
17	-14.91590023	-0.6211000085	-0.9477797747	19.53349686	-23.62788582	-67.29792786	1.0
18	-14.91590023	-0.6211000085	-0.9477797747	18.87376785	-26.90670013	-67.05397034	1.0
19	-14.91590023	-0.6211000085	-0.9477797747	18.1093998	-29.22627831	-66.71348572	1.0
20	-14.91590023	-0.6211000085	-0.9477797747	17.24505806	-30.10632896	-66.26036835	1.0
[right_elbow2]
17	13.64346027	-1.083028078	0.5017899871	2.865659952	20.76633072	-20.0929985	1.0
18	13.64346027	-1.083028078	0.5017899871	3.769951344	23.61400032	-14.39379692	1.0
19	13.64346027	-1.083028078	0.5017899871	4.409687519	25.57035065	-10.36192608	1.0
20	13.64346027	-1.083028078	0.5017899871	4.652403831	26.29762459	-8.832229614	1.0
[right_wrist2]
17	11.07325459	-0.004849368241	-0.6145500541	1.550797105	15.16100121	-10.44320679	1.0
18	11.07325459	-0.004849368241	-0.6145500541	1.914124012	17.34640884	-7.511946678	1.0
19	11.07325459	-0.004849368241	-0.6145500541	2.171157598	18.85306549	-5.438241959	1.0
20	11.07325459	-0.004849368241	-0.6145500541	2.268676519	19.41456223	-4.651475906	1.0
[right_hand2]
17	8.785093307	-0.04701882228	-0.1882400364	16.22375107	23.59285545	29.2971611	1.0
18	8.785093307	-0.04701882228	-0.1882400364	16.36779404	23.04642868	31.40875244	1.0
19	8.785093307	-0.04701882228	-0.1882400364	16.46969223	22.67357635	32.85593414	1.0
20	8.785093307	-0.04701882228	-0.1882400364	16.50835419	22.53564262	33.39299393	1.0
[right_finger6]
17	-10.07661057	-3.347557783	1.489186764	-3.907137632	-57.02325821	2.229639053	1.0
18	-10.07661057	-3.347557783	1.489186764	14.808465	-70.28951263	-17.51171303	1.0
19	-10.07661057	-3.347557783	1.489186764	28.04871941	-79.47058105	-31.45624352	1.0
20	-10.07661057	-3.347557783	1.489186764	33.07208633	-82.90140533	-36.74131393	1.0
[right_finger7]
17	1.201135993	-3.376283169	-11.27149582	-175.88974	14.42363262	170.8999634	1.0
18	1.201135993	-3.376283169	-11.27149582	-172.5474091	14.65655136	182.1521606	1.0
19	1.201135993	-3.376283169	-11.27149582	-170.223175	14.89061165	189.954361	1.0
20	1.201135993	-3.376283169	-11.27149582	-169.3517151	15.12807083	192.8738861	1.0
[right_finger8]
17	6.853637218	-4.493112087	5.936321735	23.24566078	21.61977196	44.88303757	1.0
18	6.853637218	-4.493112087	5.936321735	20.93741989	25.26698303	37.55334091	1.0
19	6.853637218	-4.493112087	5.936321735	19.3121357	27.76986122	32.48311234	1.0
20	6.853637218	-4.493112087	5.936321735	18.69747353	28.69957542	30.58906364	1.0
[Center_pelvis]
17	-5.616972446	-0.3766000271	2.04698658	-32.46943283	-2.906570435	-6.176784039	1.0
18	-5.616972446	-0.3766000271	2.04698658	-29.71679306	-3.723475933	-8.30175972	1.0
19	-5.616972446	-0.3766000271	2.04698658	-26.9641552	-4.712296009	-10.42673588	1.0
20	-5.616972446	-0.3766000271	2.04698658	-25.71258736	-5.56835413	-11.39291954	1.0
[left_pelvs]
17	11.08986378	-0.01586683653	-0.09214995801	21.0831852	0.04720240086	8.865371704	1.0
18	11.08986378	-0.01586683653	-0.09214995801	21.49758911	0.1627983749	8.614778519	1.0
19	11.08986378	-0.01586683653	-0.09214995801	21.91199303	0.3078434765	8.300341606	1.0
20	11.08986378	-0.01586683653	-0.09214995801	22.10041237	0.4434199631	8.006432533	1.0
[left_leg]
17	8.450808053e-008	-5.682914734	0.3641465604	0.009781560861	-24.64546585	-0.01938724704	1.0
18	8.450808053e-008	-5.682914734	0.3641465604	0.03129465505	-26.29531097	-0.06202662736	1.0
19	8.450808053e-008	-5.682914734	0.3641465604	0.05280774832	-28.3654747	-0.1046660095	1.0
20	8.450808053e-008	-5.682914734	0.3641465604	0.06258931011	-30.30050659	-0.1240532547	1.0
[left_knee]
17	-10.71600819	0.03128874674	0.02557340823	0.02249204926	-48.25304413	0.81433779	1.0
18	-10.76138878	0.02325163782	0.08820123225	0.1795527935	-48.73237991	2.605353117	1.0
19	-10.81833363	0.01316699386	0.1667840779	0.6055592299	-49.29103851	4.396368504	1.0
20	-10.87156105	0.003740685992	0.2402369827	1.435130596	-49.73260498	5.210706234	1.0
[left_foot]
17	-14.54718971	-0.01193539705	1.933258442e-009	-33.72767258	0.05552485585	-0.05112753808	1.0
18	-14.54718971	-0.01193539705	1.933258442e-009	-31.95004463	0.1915020198	-0.1763359308	1.0
19	-14.54718971	-0.01193539705	1.933258442e-009	-29.48488808	0.362120688	-0.3334423602	1.0
20	-14.54718971	-0.01193539705	1.933258442e-009	-26.73849869	0.5216012001	-0.4802927375	1.0
[right_pelvis]
17	-10.5868988	0.4465443194	0.2088862956	-1.144563913	0	0	1.0
18	-10.5868988	0.4465443194	0.2088862956	-3.66186285	0	0	1.0
19	-10.5868988	0.4465443194	0.2088862956	-6.179161549	0	0	1.0
20	-10.5868988	0.4465443194	0.2088862956	-7.3237257	0	0	1.0
[right_leg]
17	0.09169664979	-5.593489647	0.06310817599	2.817493439	-19.50004959	-5.122395039	1.0
18	0.09169664979	-5.593489647	0.06310817599	2.854952335	-21.41386414	-5.224872589	1.0
19	0.09169664979	-5.593489647	0.06310817599	2.89241147	-23.32768059	-5.32735014	1.0
20	0.09169664979	-5.593489647	0.06310817599	2.909443378	-24.19785118	-5.373944759	1.0
[right_knee]
17	10.69750977	-0.03459574655	-4.718447855e-015	1.781051811e-016	-22.47894287	-6.54753685	1.0
18	10.69750977	-0.03459574655	-4.718447855e-015	1.055477697e-016	-29.03807831	-6.54753685	1.0
19	10.69750977	-0.03459574655	-4.718447855e-015	3.299035834e-017	-36.51834106	-6.54753685	1.0
20	10.69750977	-0.03459574655	-4.718447855e-015	0	-42.09730148	-6.54753685	1.0
[right_foot]
17	14.54718685	0.01191107463	1.774880243e-010	-11.06969357	0	0	1.0
18	14.54718685	0.01191107463	1.774880243e-010	-0.7084655762	0	0	1.0
19	14.54718685	0.01191107463	1.774880243e-010	9.652762413	0	0	1.0
20	14.54718685	0.01191107463	1.774880243e-010	14.36379814	0	0	1.0
[EndOfFile]
